<svg width="45" height="44" viewBox="0 0 45 44" fill="none" xmlns="http://www.w3.org/2000/svg">
<path d="M17.8706 28.9999C17.692 28.3077 17.3312 27.6761 16.8258 27.1707C16.3204 26.6652 15.6887 26.3045 14.9966 26.1259L2.72689 22.962C2.51756 22.9026 2.33332 22.7765 2.20213 22.6029C2.07094 22.4293 1.99996 22.2176 1.99996 22C1.99996 21.7824 2.07094 21.5707 2.20213 21.3971C2.33332 21.2235 2.51756 21.0974 2.72689 21.038L14.9966 17.8721C15.6885 17.6937 16.32 17.3333 16.8254 16.8282C17.3308 16.3231 17.6917 15.6919 17.8706 15.0002L21.0345 2.73044C21.0933 2.52028 21.2192 2.33513 21.3931 2.20324C21.567 2.07135 21.7792 1.99996 21.9975 1.99996C22.2157 1.99996 22.4279 2.07135 22.6018 2.20324C22.7757 2.33513 22.9016 2.52028 22.9604 2.73044L26.1224 15.0002C26.3009 15.6923 26.6617 16.3239 27.1671 16.8294C27.6725 17.3348 28.3042 17.6956 28.9963 17.8741L41.266 21.036C41.477 21.0942 41.6631 21.22 41.7957 21.3942C41.9283 21.5683 42.0001 21.7811 42.0001 22C42.0001 22.2189 41.9283 22.4317 41.7957 22.6058C41.6631 22.78 41.477 22.9058 41.266 22.964L28.9963 26.1259C28.3042 26.3045 27.6725 26.6652 27.1671 27.1707C26.6617 27.6761 26.3009 28.3077 26.1224 28.9999L22.9584 41.2696C22.8996 41.4797 22.7737 41.6649 22.5998 41.7968C22.4259 41.9287 22.2137 42.0001 21.9955 42.0001C21.7772 42.0001 21.565 41.9287 21.3911 41.7968C21.2172 41.6649 21.0913 41.4797 21.0325 41.2696L17.8706 28.9999Z" stroke="#AF6ED1" stroke-width="2" stroke-linecap="round" stroke-linejoin="round"/>
</svg>
