<svg width="25" height="45" viewBox="0 0 25 45" fill="none" xmlns="http://www.w3.org/2000/svg">
<path d="M22.497 8.19822C22.4994 7.38026 22.3383 6.57009 22.023 5.81534C21.7077 5.06059 21.2447 4.37651 20.6611 3.80332C20.0776 3.23014 19.3853 2.77943 18.6251 2.4777C17.8648 2.17598 17.0519 2.02932 16.2341 2.04637C15.4163 2.06341 14.6102 2.24381 13.8632 2.57696C13.1161 2.91011 12.4433 3.38927 11.8841 3.98627C11.325 4.58327 10.8909 5.28605 10.6073 6.05329C10.3237 6.82052 10.1965 7.6367 10.233 8.45384C9.03089 8.76293 7.91492 9.34149 6.96956 10.1457C6.0242 10.95 5.27424 11.9588 4.77649 13.0958C4.27873 14.2328 4.04624 15.4681 4.0966 16.7082C4.14697 17.9484 4.47888 19.1608 5.0672 20.2537C4.03278 21.0941 3.21936 22.1744 2.6977 23.4009C2.17604 24.6273 1.96193 25.9626 2.07401 27.2906C2.18609 28.6187 2.62096 29.8992 3.34079 31.0208C4.06062 32.1425 5.04361 33.0713 6.20424 33.7264C6.06092 34.8353 6.14645 35.9618 6.45555 37.0363C6.76465 38.1109 7.29076 39.1106 8.00139 39.9739C8.71201 40.8371 9.59207 41.5455 10.5872 42.0553C11.5823 42.5651 12.6714 42.8655 13.7872 42.9379C14.903 43.0103 16.0217 42.8532 17.0744 42.4763C18.1271 42.0994 19.0913 41.5107 19.9075 40.7465C20.7238 39.9823 21.3747 39.0589 21.8201 38.0334C22.2654 37.0078 22.4958 35.9018 22.497 34.7837V8.19822Z" stroke="#8684D4" stroke-width="2" stroke-linecap="round" stroke-linejoin="round"/>
</svg>
