<svg width="23" height="23" viewBox="0 0 23 23" fill="none" xmlns="http://www.w3.org/2000/svg">
<path d="M8.83793 20.3383C8.45185 20.7243 7.92828 20.9411 7.38237 20.9411C6.83645 20.9411 6.31289 20.7243 5.92681 20.3383L2.66157 17.0731C2.27561 16.687 2.05879 16.1634 2.05879 15.6175C2.05879 15.0716 2.27561 14.548 2.66157 14.162L14.162 2.66157C14.548 2.27561 15.0716 2.05879 15.6175 2.05879C16.1634 2.05879 16.687 2.27561 17.0731 2.66157L20.3383 5.92681C20.7243 6.31289 20.9411 6.83645 20.9411 7.38237C20.9411 7.92828 20.7243 8.45185 20.3383 8.83793L8.83793 20.3383Z" stroke="#64C9B3" stroke-width="2" stroke-linecap="round" stroke-linejoin="round"/>
</svg>
