<svg width="931" height="931" viewBox="0 0 931 931" fill="none" xmlns="http://www.w3.org/2000/svg">
<path d="M930.922 465.887C930.922 722.699 722.734 930.887 465.922 930.887C209.109 930.887 0.921875 722.699 0.921875 465.887C0.921875 209.074 209.109 0.886719 465.922 0.886719C722.734 0.886719 930.922 209.074 930.922 465.887Z" fill="#58C6B3" fill-opacity="0.4"/>
<path d="M407.866 293.904C366.676 280.817 300.851 311.029 268.506 360.305C214.636 442.375 130.377 594.614 332.932 650.227C333.008 650.248 333.091 650.261 333.169 650.264L633.917 659.92C807.816 565.081 703.861 369.958 605.722 321.604C550.916 294.6 507.677 305.594 486.532 307.527C485.794 307.595 485.262 306.862 485.534 306.172C487.809 300.416 495.821 279.528 495.384 271.973C495.319 270.849 494.121 270.486 493.162 271.077L450.92 297.116C450.538 297.352 450.035 297.3 449.729 296.971C440.911 287.474 459.978 269.382 460.887 230.706C460.909 229.762 459.732 229.331 459.141 230.068L407.866 293.904Z" fill="white"/>
<path d="M268.506 360.305L262.654 356.464L268.506 360.305ZM407.866 293.904L405.747 300.575L410.319 302.028L413.324 298.287L407.866 293.904ZM459.141 230.068L464.598 234.451L464.598 234.451L459.141 230.068ZM460.887 230.706L467.885 230.87L467.885 230.87L460.887 230.706ZM449.729 296.971L454.859 292.208L454.859 292.208L449.729 296.971ZM450.92 297.116L447.247 291.157L447.247 291.157L450.92 297.116ZM493.162 271.077L489.489 265.118L489.489 265.119L493.162 271.077ZM495.384 271.973L502.372 271.569L502.372 271.569L495.384 271.973ZM485.534 306.172L492.044 308.745L492.044 308.745L485.534 306.172ZM486.532 307.527L485.895 300.556L485.895 300.556L486.532 307.527ZM605.722 321.604L602.629 327.883L605.722 321.604ZM633.917 659.92L633.693 666.916L635.596 666.977L637.269 666.065L633.917 659.92ZM332.932 650.227L331.079 656.978L331.079 656.978L332.932 650.227ZM333.169 650.264L333.394 643.267L333.392 643.267L333.169 650.264ZM274.358 364.146C289.74 340.711 313.229 321.645 337.851 310.051C362.638 298.38 387.475 294.77 405.747 300.575L409.986 287.232C387.067 279.951 358.397 284.903 331.887 297.385C305.212 309.945 279.616 330.623 262.654 356.464L274.358 364.146ZM413.324 298.287L464.598 234.451L453.683 225.684L402.409 289.52L413.324 298.287ZM453.889 230.541C453.462 248.695 448.803 262.001 445.07 272.42C443.28 277.416 441.395 282.523 440.707 286.981C439.963 291.798 440.398 297.21 444.599 301.734L454.859 292.208C454.651 291.984 454.163 291.573 454.542 289.118C454.977 286.304 456.262 282.69 458.25 277.142C462.073 266.471 467.403 251.393 467.885 230.87L453.889 230.541ZM454.594 303.075L496.835 277.036L489.489 265.119L447.247 291.157L454.594 303.075ZM488.395 272.377C488.443 273.192 488.238 275.076 487.532 278.105C486.869 280.949 485.902 284.242 484.817 287.588C482.65 294.27 480.14 300.776 479.024 303.6L492.044 308.745C493.203 305.813 495.836 298.996 498.134 291.906C499.282 288.367 500.379 284.661 501.166 281.284C501.91 278.092 502.544 274.532 502.372 271.569L488.395 272.377ZM487.17 314.498C509.073 312.496 549.985 301.945 602.629 327.883L608.816 315.325C551.847 287.256 506.282 298.693 485.895 300.556L487.17 314.498ZM602.629 327.883C649.728 351.089 698.984 410.203 715.039 475.013C723.022 507.235 722.698 540.472 710.192 571.21C697.714 601.882 672.844 630.717 630.566 653.774L637.269 666.065C681.94 641.703 709.288 610.583 723.16 576.486C737.005 542.454 737.165 506.105 728.629 471.647C711.647 403.098 659.856 340.472 608.816 315.325L602.629 327.883ZM262.654 356.464C235.799 397.377 200.142 457.445 197.567 514.874C196.263 543.946 203.417 572.574 224.49 597.523C245.446 622.334 279.607 642.846 331.079 656.978L334.786 643.477C284.98 629.802 253.716 610.429 235.185 588.489C216.771 566.688 210.377 541.699 211.553 515.501C213.935 462.389 247.343 405.303 274.358 364.146L262.654 356.464ZM634.142 652.923L333.394 643.267L332.945 657.26L633.693 666.916L634.142 652.923ZM479.024 303.6C476.9 308.973 481.061 315.057 487.17 314.498L485.895 300.556C490.528 300.133 493.623 304.75 492.044 308.745L479.024 303.6ZM496.835 277.036C495.727 277.719 494.032 278.129 492.191 277.452C490.036 276.659 488.526 274.631 488.395 272.377L502.372 271.569C502.177 268.191 500.036 265.42 497.025 264.312C494.329 263.321 491.556 263.845 489.489 265.118L496.835 277.036ZM331.079 656.978C331.656 657.136 332.286 657.239 332.946 657.26L333.392 643.267C333.895 643.283 334.36 643.36 334.786 643.477L331.079 656.978ZM444.599 301.734C447.338 304.684 451.574 304.936 454.594 303.075L447.247 291.157C449.503 289.767 452.731 289.916 454.859 292.208L444.599 301.734ZM464.598 234.451C460.989 238.944 453.754 236.274 453.889 230.541L467.885 230.87C468.064 223.25 458.474 219.719 453.683 225.684L464.598 234.451Z" fill="#0C056D"/>
<path d="M291.871 413.796C338.008 339.241 432.29 378.253 458.795 401.638C582.272 334.29 631.74 410.677 647.329 451.21C669.778 627.068 514.896 605.553 446.217 605.553C246.442 605.553 260.691 491.746 291.871 413.796Z" fill="#D1D7F5"/>
<path d="M352.009 432.824L211.449 470.456C194.422 479.879 212.774 551.468 219.868 570.442L367.445 495.003C397.673 464.775 369.185 436.259 352.009 432.824Z" fill="#0C056D"/>
<path d="M557.307 493.593C527.651 463.937 558.047 431.212 578.685 427.671C579.467 427.537 580.257 427.643 581 427.919L647.955 452.776L716.042 478.054C729.363 491.141 721.592 562.343 716.041 579.79L557.307 493.593Z" fill="#0C056D"/>
<path d="M365.347 468.266C365.347 458.616 357.524 450.794 347.875 450.794C338.225 450.794 330.402 458.616 330.402 468.266C330.402 477.916 338.225 485.738 347.875 485.738C357.524 485.738 365.347 477.916 365.347 468.266Z" fill="white"/>
<path d="M604.714 466.469C604.714 456.711 596.804 448.801 587.047 448.801C577.289 448.801 569.379 456.711 569.379 466.469C569.379 476.226 577.289 484.136 587.047 484.136C596.804 484.136 604.714 476.226 604.714 466.469Z" fill="white"/>
<path d="M443.05 503.133L461.496 481.566C462.693 480.166 464.858 480.166 466.055 481.565L484.507 503.132C486.173 505.079 484.79 508.083 482.228 508.083H445.33C442.768 508.083 441.385 505.079 443.05 503.133Z" fill="#0C056D"/>
<path d="M461.496 481.566L458.076 478.641L458.076 478.641L461.496 481.566ZM443.05 503.133L446.47 506.058L446.47 506.058L443.05 503.133ZM484.507 503.132L481.088 506.058L481.088 506.058L484.507 503.132ZM466.055 481.565L469.475 478.64L469.475 478.64L466.055 481.565ZM458.076 478.641L439.63 500.208L446.47 506.058L464.916 484.491L458.076 478.641ZM445.33 512.583H482.228V503.583H445.33V512.583ZM487.927 500.207L469.475 478.64L462.636 484.491L481.088 506.058L487.927 500.207ZM482.228 512.583C488.632 512.583 492.09 505.073 487.927 500.207L481.088 506.058C480.255 505.084 480.947 503.583 482.228 503.583V512.583ZM439.63 500.208C435.468 505.074 438.926 512.583 445.33 512.583V503.583C446.611 503.583 447.302 505.084 446.47 506.058L439.63 500.208ZM464.916 484.491C464.317 485.191 463.235 485.191 462.636 484.491L469.475 478.64C466.481 475.141 461.07 475.141 458.076 478.641L464.916 484.491Z" fill="#0C056D"/>
</svg>
